<svg width="148" height="37" viewBox="0 0 148 37" fill="none" xmlns="http://www.w3.org/2000/svg">
<g clip-path="url(#clip0_702_121)">
<path d="M44.8118 0C34.8637 0 26.7944 8.27649 26.7944 18.4802C26.7944 28.6839 34.8637 36.9604 44.8118 36.9604C54.76 36.9604 62.8292 28.6839 62.8292 18.4802C62.8292 8.27649 54.76 0 44.8118 0ZM44.8118 32.0103C37.5277 32.0103 31.6205 25.9515 31.6205 18.4802C31.6205 11.0089 37.5277 4.95005 44.8118 4.95005C52.096 4.95005 58.0031 11.0089 58.0031 18.4802C58.0031 25.9515 52.096 32.0103 44.8118 32.0103Z" fill="#41B883"/>
<path d="M82.777 0C72.8289 0 64.7596 8.27649 64.7596 18.4802C64.7596 28.6839 72.8289 36.9604 82.777 36.9604C92.7252 36.9604 100.794 28.6839 100.794 18.4802C100.794 8.27649 92.7252 0 82.777 0ZM82.777 32.0103C75.4929 32.0103 69.5857 25.9515 69.5857 18.4802C69.5857 11.0089 75.4929 4.95005 82.777 4.95005C90.0612 4.95005 95.9683 11.0089 95.9683 18.4802C95.9683 25.9515 90.0612 32.0103 82.777 32.0103Z" fill="#41B883"/>
<path d="M107.461 0.138601C106.753 0.0528006 106.032 0 105.299 0C104.507 0 103.722 0.0594006 102.957 0.158402V5.17446V31.7859V36.802C103.722 36.901 104.501 36.9604 105.299 36.9604C106.032 36.9604 106.753 36.9076 107.461 36.8218C116.392 35.7262 123.316 27.9315 123.316 18.4802C123.316 9.0289 116.392 1.23421 107.461 0.138601ZM107.461 31.8123V5.14806C113.715 6.21067 118.49 11.7679 118.49 18.4802C118.49 25.1925 113.715 30.7497 107.461 31.8123Z" fill="#41B883"/>
<path d="M130.272 0.0396118H125.768V37H130.272V0.0396118Z" fill="#41B883"/>
<path d="M148 4.65966V0.0396118H137.704H133.2V4.65966V21.1598V25.7799V32.38V37H137.704H148V32.38H137.704V25.7799H143.496V21.1598H137.704V4.65966H148Z" fill="#41B883"/>
<path d="M17.6957 0C15.6944 0 13.8798 0.818409 12.5478 2.14502C11.2158 0.818409 9.40122 0 7.4 0C3.31391 0 0 3.39904 0 7.59008V37H4.50435V7.59008C4.50435 5.94666 5.79774 4.62005 7.4 4.62005C9.00226 4.62005 10.2957 5.94666 10.2957 7.59008V37H14.8V7.59008C14.8 5.94666 16.0934 4.62005 17.6957 4.62005C19.2979 4.62005 20.5913 5.94666 20.5913 7.59008V37H25.0957V7.59008C25.0957 3.39904 21.7817 0 17.6957 0Z" fill="#41B883"/>
</g>
<defs>
<clipPath id="clip0_702_121">
<rect width="148" height="37" fill="white"/>
</clipPath>
</defs>
</svg>
