<svg width="91" height="75" viewBox="0 0 91 75" fill="none" xmlns="http://www.w3.org/2000/svg">
<path d="M62 71V45.5C62 41.4937 62 39.4905 60.13 38.2467C58.2685 37 55.2637 37 49.25 37H40.75C34.7405 37 31.7357 37 29.87 38.2467C28 39.4877 28 41.4908 28 45.5V71" stroke="#FFE865" stroke-width="5.5" stroke-linecap="round"/>
<path opacity="0.5" d="M28.3 71.3C28.3 65.3376 28.3 62.3565 26.4447 60.5053C24.5978 58.65 21.6166 58.65 15.65 58.65C9.68342 58.65 6.70645 58.65 4.85533 60.5053C3 62.3522 3 65.3334 3 71.3M87.3333 71.3V58.65C87.3333 52.6876 87.3333 49.7065 85.478 47.8553C83.6311 46 80.6499 46 74.6833 46C68.7167 46 65.7398 46 63.8887 47.8553C62.0333 49.7022 62.0333 52.6834 62.0333 58.65V71.3" stroke="#CCAD00" stroke-width="5.5" stroke-linecap="round"/>
<path d="M41.5655 7.31365C43.1679 4.43367 43.969 3 45.1666 3C46.3641 3 47.1653 4.43367 48.7676 7.31365L49.1808 8.05578C49.6362 8.87382 49.8639 9.27862 50.2181 9.54848C50.5765 9.81835 51.0193 9.91955 51.9048 10.1177L52.706 10.3033C55.8179 11.0075 57.3738 11.3574 57.7449 12.5465C58.1159 13.7356 57.0533 14.9795 54.9324 17.4589L54.3842 18.0999C53.7812 18.8041 53.4776 19.154 53.3427 19.5926C53.2077 20.0311 53.2541 20.4992 53.3427 21.4395L53.427 22.2955C53.7475 25.6056 53.9077 27.2627 52.9421 27.9964C51.9723 28.7343 50.5133 28.0597 47.5996 26.7188L46.849 26.373C46.0183 25.9935 45.6051 25.7995 45.1666 25.7995C44.728 25.7995 44.3148 25.9935 43.4841 26.373L42.7335 26.7188C39.8198 28.0597 38.3609 28.7343 37.391 27.9964C36.4212 27.2627 36.5856 25.6056 36.9061 22.2955L36.9904 21.4395C37.079 20.4992 37.1254 20.0311 36.9904 19.5926C36.8555 19.154 36.5519 18.8041 35.9489 18.0999L35.4008 17.4589C33.2798 14.9795 32.2172 13.7398 32.5882 12.5465C32.9593 11.3574 34.5153 11.0075 37.6272 10.3033L38.4283 10.1177C39.3138 9.91955 39.7566 9.82257 40.115 9.54848C40.4692 9.27862 40.6969 8.87382 41.1523 8.05578L41.5655 7.31365Z" stroke="#FFE865" stroke-width="5.5"/>
</svg>
