<svg width="15" height="15" viewBox="0 0 15 15" fill="none" xmlns="http://www.w3.org/2000/svg">
<path d="M3.66667 13.3333H6.33333C6.33333 14.0667 5.73333 14.6667 5 14.6667C4.26667 14.6667 3.66667 14.0667 3.66667 13.3333ZM2.33333 12.6667H7.66667V11.3333H2.33333V12.6667ZM10 6.33333C10 8.88 8.22667 10.24 7.48667 10.6667H2.51333C1.77333 10.24 0 8.88 0 6.33333C0 3.57333 2.24 1.33333 5 1.33333C7.76 1.33333 10 3.57333 10 6.33333ZM13.2467 4.91333L12.3333 5.33333L13.2467 5.75333L13.6667 6.66667L14.0867 5.75333L15 5.33333L14.0867 4.91333L13.6667 4L13.2467 4.91333ZM11.6667 4L12.2933 2.62667L13.6667 2L12.2933 1.37333L11.6667 0L11.04 1.37333L9.66667 2L11.04 2.62667L11.6667 4Z" fill="#EBFFD3"/>
</svg>
