<svg width="398" height="118" viewBox="0 0 398 118" fill="none" xmlns="http://www.w3.org/2000/svg">
<g filter="url(#filter0_d_114_513)">
<rect x="4" y="2" width="390" height="110" rx="15" fill="white"/>
<path d="M64 20V99" stroke="#4E741D" stroke-width="0.5" stroke-linecap="round"/>
<path d="M118 20V99" stroke="#4E741D" stroke-width="0.5" stroke-linecap="round"/>
<path d="M172 20V99" stroke="#4E741D" stroke-width="0.5" stroke-linecap="round"/>
<path d="M226 20V99" stroke="#4E741D" stroke-width="0.5" stroke-linecap="round"/>
<path d="M280 20V99" stroke="#4E741D" stroke-width="0.5" stroke-linecap="round"/>
<path d="M334 20V99" stroke="#4E741D" stroke-width="0.5" stroke-linecap="round"/>
<path d="M12 38H386.5" stroke="#4E741D" stroke-width="0.5" stroke-linecap="round"/>
<path d="M357.132 29.624C357.132 30.128 357.008 30.568 356.76 30.944C356.512 31.32 356.152 31.612 355.68 31.82C355.216 32.02 354.648 32.12 353.976 32.12C353.68 32.12 353.388 32.1 353.1 32.06C352.82 32.02 352.548 31.964 352.284 31.892C352.028 31.812 351.784 31.716 351.552 31.604V29.912C351.96 30.088 352.38 30.252 352.812 30.404C353.252 30.548 353.688 30.62 354.12 30.62C354.416 30.62 354.652 30.58 354.828 30.5C355.012 30.42 355.144 30.312 355.224 30.176C355.312 30.04 355.356 29.884 355.356 29.708C355.356 29.492 355.28 29.308 355.128 29.156C354.984 29.004 354.788 28.864 354.54 28.736C354.292 28.6 354.008 28.456 353.688 28.304C353.488 28.208 353.272 28.096 353.04 27.968C352.808 27.832 352.584 27.668 352.368 27.476C352.16 27.276 351.988 27.036 351.852 26.756C351.716 26.476 351.648 26.14 351.648 25.748C351.648 25.236 351.764 24.8 351.996 24.44C352.236 24.072 352.572 23.792 353.004 23.6C353.444 23.408 353.96 23.312 354.552 23.312C355 23.312 355.424 23.364 355.824 23.468C356.232 23.572 356.656 23.72 357.096 23.912L356.508 25.328C356.116 25.168 355.764 25.044 355.452 24.956C355.14 24.868 354.82 24.824 354.492 24.824C354.268 24.824 354.076 24.86 353.916 24.932C353.756 25.004 353.632 25.104 353.544 25.232C353.464 25.36 353.424 25.512 353.424 25.688C353.424 25.888 353.484 26.06 353.604 26.204C353.724 26.34 353.904 26.472 354.144 26.6C354.384 26.728 354.684 26.88 355.044 27.056C355.484 27.264 355.856 27.48 356.16 27.704C356.472 27.928 356.712 28.192 356.88 28.496C357.048 28.8 357.132 29.176 357.132 29.624ZM363.933 32L363.309 29.96H360.189L359.565 32H357.609L360.633 23.396H362.853L365.889 32H363.933ZM362.253 26.444C362.213 26.308 362.161 26.136 362.097 25.928C362.033 25.72 361.969 25.508 361.905 25.292C361.841 25.076 361.789 24.888 361.749 24.728C361.709 24.888 361.653 25.088 361.581 25.328C361.517 25.56 361.453 25.784 361.389 26C361.333 26.208 361.289 26.356 361.257 26.444L360.645 28.436H362.877L362.253 26.444ZM369.431 32H367.619V24.944H365.291V23.432H371.759V24.944H369.431V32Z" fill="#4985B7"/>
<path d="M29.4113 29.624C29.4113 30.128 29.2873 30.568 29.0393 30.944C28.7913 31.32 28.4313 31.612 27.9593 31.82C27.4953 32.02 26.9273 32.12 26.2553 32.12C25.9593 32.12 25.6673 32.1 25.3793 32.06C25.0993 32.02 24.8273 31.964 24.5633 31.892C24.3073 31.812 24.0633 31.716 23.8313 31.604V29.912C24.2393 30.088 24.6593 30.252 25.0913 30.404C25.5313 30.548 25.9673 30.62 26.3993 30.62C26.6953 30.62 26.9313 30.58 27.1073 30.5C27.2913 30.42 27.4233 30.312 27.5033 30.176C27.5913 30.04 27.6353 29.884 27.6353 29.708C27.6353 29.492 27.5593 29.308 27.4073 29.156C27.2633 29.004 27.0673 28.864 26.8193 28.736C26.5713 28.6 26.2873 28.456 25.9673 28.304C25.7673 28.208 25.5513 28.096 25.3193 27.968C25.0873 27.832 24.8633 27.668 24.6473 27.476C24.4393 27.276 24.2673 27.036 24.1313 26.756C23.9953 26.476 23.9273 26.14 23.9273 25.748C23.9273 25.236 24.0433 24.8 24.2753 24.44C24.5153 24.072 24.8513 23.792 25.2833 23.6C25.7233 23.408 26.2393 23.312 26.8313 23.312C27.2793 23.312 27.7033 23.364 28.1033 23.468C28.5113 23.572 28.9353 23.72 29.3753 23.912L28.7873 25.328C28.3953 25.168 28.0433 25.044 27.7313 24.956C27.4193 24.868 27.0993 24.824 26.7713 24.824C26.5473 24.824 26.3553 24.86 26.1953 24.932C26.0353 25.004 25.9113 25.104 25.8233 25.232C25.7433 25.36 25.7033 25.512 25.7033 25.688C25.7033 25.888 25.7633 26.06 25.8833 26.204C26.0033 26.34 26.1833 26.472 26.4233 26.6C26.6633 26.728 26.9633 26.88 27.3233 27.056C27.7633 27.264 28.1353 27.48 28.4393 27.704C28.7513 27.928 28.9913 28.192 29.1593 28.496C29.3273 28.8 29.4113 29.176 29.4113 29.624ZM37.9407 28.976C37.9407 29.568 37.8087 30.104 37.5447 30.584C37.2887 31.056 36.8967 31.432 36.3687 31.712C35.8487 31.984 35.1887 32.12 34.3887 32.12C33.2527 32.12 32.3887 31.832 31.7967 31.256C31.2047 30.672 30.9087 29.904 30.9087 28.952V23.432H32.7207V28.676C32.7207 29.38 32.8647 29.876 33.1527 30.164C33.4407 30.452 33.8687 30.596 34.4367 30.596C34.8367 30.596 35.1607 30.528 35.4087 30.392C35.6567 30.256 35.8367 30.044 35.9487 29.756C36.0687 29.468 36.1287 29.104 36.1287 28.664V23.432H37.9407V28.976ZM47.635 32H45.331L41.599 25.52H41.551C41.559 25.72 41.567 25.924 41.575 26.132C41.583 26.332 41.591 26.536 41.599 26.744C41.615 26.944 41.627 27.148 41.635 27.356C41.643 27.556 41.651 27.76 41.659 27.968V32H40.039V23.432H42.331L46.051 29.852H46.087C46.079 29.652 46.071 29.456 46.063 29.264C46.055 29.064 46.047 28.868 46.039 28.676C46.039 28.476 46.035 28.28 46.027 28.088C46.019 27.888 46.011 27.688 46.003 27.488V23.432H47.635V32Z" fill="#ED7777"/>
<path d="M79.8876 32L77.8236 25.28H77.7756C77.7836 25.44 77.7956 25.68 77.8116 26C77.8276 26.32 77.8436 26.664 77.8596 27.032C77.8756 27.392 77.8836 27.72 77.8836 28.016V32H76.2636V23.432H78.7356L80.7636 29.984H80.7996L82.9476 23.432H85.4196V32H83.7276V27.944C83.7276 27.672 83.7316 27.36 83.7396 27.008C83.7556 26.656 83.7676 26.324 83.7756 26.012C83.7916 25.692 83.8036 25.452 83.8116 25.292H83.7636L81.5556 32H79.8876ZM95.3599 27.704C95.3599 28.368 95.2759 28.972 95.1079 29.516C94.9479 30.052 94.6999 30.516 94.3639 30.908C94.0359 31.3 93.6119 31.6 93.0919 31.808C92.5799 32.016 91.9759 32.12 91.2799 32.12C90.5839 32.12 89.9759 32.016 89.4559 31.808C88.9439 31.592 88.5199 31.292 88.1839 30.908C87.8559 30.516 87.6079 30.048 87.4399 29.504C87.2799 28.96 87.1999 28.356 87.1999 27.692C87.1999 26.804 87.3439 26.032 87.6319 25.376C87.9279 24.72 88.3759 24.212 88.9759 23.852C89.5839 23.484 90.3559 23.3 91.2919 23.3C92.2199 23.3 92.9839 23.484 93.5839 23.852C94.1839 24.212 94.6279 24.724 94.9159 25.388C95.2119 26.044 95.3599 26.816 95.3599 27.704ZM89.1079 27.704C89.1079 28.304 89.1839 28.82 89.3359 29.252C89.4879 29.684 89.7239 30.016 90.0439 30.248C90.3639 30.48 90.7759 30.596 91.2799 30.596C91.7999 30.596 92.2159 30.48 92.5279 30.248C92.8479 30.016 93.0799 29.684 93.2239 29.252C93.3759 28.82 93.4519 28.304 93.4519 27.704C93.4519 26.8 93.2839 26.092 92.9479 25.58C92.6119 25.068 92.0599 24.812 91.2919 24.812C90.7799 24.812 90.3639 24.928 90.0439 25.16C89.7239 25.392 89.4879 25.724 89.3359 26.156C89.1839 26.588 89.1079 27.104 89.1079 27.704ZM104.731 32H102.427L98.6947 25.52H98.6467C98.6547 25.72 98.6627 25.924 98.6707 26.132C98.6787 26.332 98.6867 26.536 98.6947 26.744C98.7107 26.944 98.7227 27.148 98.7307 27.356C98.7387 27.556 98.7467 27.76 98.7547 27.968V32H97.1347V23.432H99.4267L103.147 29.852H103.183C103.175 29.652 103.167 29.456 103.159 29.264C103.151 29.064 103.143 28.868 103.135 28.676C103.135 28.476 103.131 28.28 103.123 28.088C103.115 27.888 103.107 27.688 103.099 27.488V23.432H104.731V32Z" fill="#4E741D"/>
<path d="M137.513 32H135.701V24.944H133.373V23.432H139.841V24.944H137.513V32ZM148.134 28.976C148.134 29.568 148.002 30.104 147.738 30.584C147.482 31.056 147.09 31.432 146.562 31.712C146.042 31.984 145.382 32.12 144.582 32.12C143.446 32.12 142.582 31.832 141.99 31.256C141.398 30.672 141.102 29.904 141.102 28.952V23.432H142.914V28.676C142.914 29.38 143.058 29.876 143.346 30.164C143.634 30.452 144.062 30.596 144.63 30.596C145.03 30.596 145.354 30.528 145.602 30.392C145.85 30.256 146.03 30.044 146.142 29.756C146.262 29.468 146.322 29.104 146.322 28.664V23.432H148.134V28.976ZM155.164 32H150.232V23.432H155.164V24.92H152.044V26.804H154.948V28.292H152.044V30.5H155.164V32Z" fill="#4E741D"/>
<path d="M197.004 23.432L194.82 32H192.756L191.592 27.5C191.568 27.412 191.536 27.28 191.496 27.104C191.464 26.928 191.424 26.736 191.376 26.528C191.336 26.32 191.3 26.124 191.268 25.94C191.236 25.748 191.212 25.6 191.196 25.496C191.188 25.6 191.164 25.748 191.124 25.94C191.092 26.124 191.056 26.32 191.016 26.528C190.976 26.728 190.936 26.92 190.896 27.104C190.856 27.28 190.824 27.416 190.8 27.512L189.648 32H187.584L185.4 23.432H187.188L188.28 28.112C188.312 28.248 188.348 28.416 188.388 28.616C188.428 28.808 188.468 29.012 188.508 29.228C188.548 29.436 188.584 29.64 188.616 29.84C188.656 30.04 188.684 30.212 188.7 30.356C188.716 30.204 188.74 30.032 188.772 29.84C188.804 29.64 188.84 29.44 188.88 29.24C188.92 29.032 188.956 28.84 188.988 28.664C189.028 28.48 189.064 28.336 189.096 28.232L190.344 23.432H192.06L193.308 28.232C193.332 28.336 193.364 28.48 193.404 28.664C193.444 28.84 193.484 29.032 193.524 29.24C193.564 29.448 193.6 29.652 193.632 29.852C193.664 30.044 193.688 30.212 193.704 30.356C193.728 30.156 193.764 29.92 193.812 29.648C193.86 29.368 193.912 29.088 193.968 28.808C194.032 28.528 194.084 28.296 194.124 28.112L195.216 23.432H197.004ZM203.014 32H198.082V23.432H203.014V24.92H199.894V26.804H202.798V28.292H199.894V30.5H203.014V32ZM211.901 27.632C211.901 28.592 211.717 29.396 211.349 30.044C210.981 30.692 210.445 31.18 209.741 31.508C209.045 31.836 208.205 32 207.221 32H204.797V23.432H207.485C208.381 23.432 209.157 23.592 209.813 23.912C210.477 24.232 210.989 24.704 211.349 25.328C211.717 25.944 211.901 26.712 211.901 27.632ZM210.017 27.68C210.017 27.048 209.925 26.528 209.741 26.12C209.557 25.712 209.281 25.412 208.913 25.22C208.553 25.02 208.109 24.92 207.581 24.92H206.609V30.5H207.389C208.277 30.5 208.937 30.264 209.369 29.792C209.801 29.32 210.017 28.616 210.017 27.68Z" fill="#4E741D"/>
<path d="M244.782 32H242.97V24.944H240.642V23.432H247.11V24.944H244.782V32ZM255.452 32H253.64V28.304H250.244V32H248.432V23.432H250.244V26.792H253.64V23.432H255.452V32ZM264.579 28.976C264.579 29.568 264.447 30.104 264.183 30.584C263.927 31.056 263.535 31.432 263.007 31.712C262.487 31.984 261.827 32.12 261.027 32.12C259.891 32.12 259.027 31.832 258.435 31.256C257.843 30.672 257.547 29.904 257.547 28.952V23.432H259.359V28.676C259.359 29.38 259.503 29.876 259.791 30.164C260.079 30.452 260.507 30.596 261.075 30.596C261.475 30.596 261.799 30.528 262.047 30.392C262.295 30.256 262.475 30.044 262.587 29.756C262.707 29.468 262.767 29.104 262.767 28.664V23.432H264.579V28.976Z" fill="#4E741D"/>
<path d="M299.282 32H297.494V23.432H302.402V24.92H299.282V27.128H302.186V28.616H299.282V32ZM306.576 23.432C307.352 23.432 307.992 23.528 308.496 23.72C309 23.904 309.376 24.188 309.624 24.572C309.872 24.948 309.996 25.424 309.996 26C309.996 26.392 309.92 26.736 309.768 27.032C309.624 27.32 309.428 27.568 309.18 27.776C308.94 27.976 308.68 28.14 308.4 28.268L310.92 32H308.904L306.864 28.712H305.892V32H304.08V23.432H306.576ZM306.444 24.92H305.892V27.236H306.48C306.88 27.236 307.204 27.192 307.452 27.104C307.7 27.016 307.88 26.884 307.992 26.708C308.104 26.524 308.16 26.304 308.16 26.048C308.16 25.776 308.096 25.56 307.968 25.4C307.848 25.232 307.66 25.112 307.404 25.04C307.156 24.96 306.836 24.92 306.444 24.92ZM315.206 32H311.306V30.968L312.35 30.488V24.944L311.306 24.464V23.432H315.206V24.464L314.162 24.944V30.488L315.206 30.968V32Z" fill="#4E741D"/>
</g>
<defs>
<filter id="filter0_d_114_513" x="0" y="0" width="398" height="118" filterUnits="userSpaceOnUse" color-interpolation-filters="sRGB">
<feFlood flood-opacity="0" result="BackgroundImageFix"/>
<feColorMatrix in="SourceAlpha" type="matrix" values="0 0 0 0 0 0 0 0 0 0 0 0 0 0 0 0 0 0 127 0" result="hardAlpha"/>
<feOffset dy="2"/>
<feGaussianBlur stdDeviation="2"/>
<feComposite in2="hardAlpha" operator="out"/>
<feColorMatrix type="matrix" values="0 0 0 0 0 0 0 0 0 0 0 0 0 0 0 0 0 0 0.15 0"/>
<feBlend mode="normal" in2="BackgroundImageFix" result="effect1_dropShadow_114_513"/>
<feBlend mode="normal" in="SourceGraphic" in2="effect1_dropShadow_114_513" result="shape"/>
</filter>
</defs>
</svg>
