<svg width="43" height="43" viewBox="0 0 43 43" fill="none" xmlns="http://www.w3.org/2000/svg">
<path d="M21.5 43C9.62555 43 0 33.3745 0 21.5C0 9.62555 9.62555 0 21.5 0C33.3745 0 43 9.62555 43 21.5C43 33.3745 33.3745 43 21.5 43ZM21.5 38.7C26.0617 38.7 30.4366 36.8879 33.6622 33.6622C36.8879 30.4366 38.7 26.0617 38.7 21.5C38.7 16.9383 36.8879 12.5634 33.6622 9.33776C30.4366 6.11214 26.0617 4.3 21.5 4.3C16.9383 4.3 12.5634 6.11214 9.33776 9.33776C6.11214 12.5634 4.3 16.9383 4.3 21.5C4.3 26.0617 6.11214 30.4366 9.33776 33.6622C12.5634 36.8879 16.9383 38.7 21.5 38.7ZM10.75 32.25C10.75 29.3989 11.8826 26.6646 13.8986 24.6486C15.9146 22.6326 18.6489 21.5 21.5 21.5C24.3511 21.5 27.0854 22.6326 29.1014 24.6486C31.1174 26.6646 32.25 29.3989 32.25 32.25H27.95C27.95 30.5394 27.2705 28.8988 26.0608 27.6892C24.8512 26.4796 23.2106 25.8 21.5 25.8C19.7894 25.8 18.1488 26.4796 16.9392 27.6892C15.7296 28.8988 15.05 30.5394 15.05 32.25H10.75ZM12.9 19.35C12.0447 19.35 11.2244 19.0102 10.6196 18.4054C10.0148 17.8006 9.675 16.9803 9.675 16.125C9.675 15.2697 10.0148 14.4494 10.6196 13.8446C11.2244 13.2398 12.0447 12.9 12.9 12.9C13.7553 12.9 14.5756 13.2398 15.1804 13.8446C15.7852 14.4494 16.125 15.2697 16.125 16.125C16.125 16.9803 15.7852 17.8006 15.1804 18.4054C14.5756 19.0102 13.7553 19.35 12.9 19.35ZM30.1 19.35C29.2447 19.35 28.4244 19.0102 27.8196 18.4054C27.2148 17.8006 26.875 16.9803 26.875 16.125C26.875 15.2697 27.2148 14.4494 27.8196 13.8446C28.4244 13.2398 29.2447 12.9 30.1 12.9C30.9553 12.9 31.7756 13.2398 32.3804 13.8446C32.9852 14.4494 33.325 15.2697 33.325 16.125C33.325 16.9803 32.9852 17.8006 32.3804 18.4054C31.7756 19.0102 30.9553 19.35 30.1 19.35Z" fill="url(#paint0_linear_114_588)"/>
<defs>
<linearGradient id="paint0_linear_114_588" x1="21" y1="-14" x2="26.5" y2="51.5" gradientUnits="userSpaceOnUse">
<stop stop-color="#EAEA68"/>
<stop offset="1" stop-color="#FF2C2C"/>
</linearGradient>
</defs>
</svg>
