<?xml version="1.0" encoding="utf-8"?>
<!-- Generator: Adobe Illustrator 24.0.2, SVG Export Plug-In . SVG Version: 6.00 Build 0)  -->
<svg version="1.1" id="Layer_1" xmlns="http://www.w3.org/2000/svg" xmlns:xlink="http://www.w3.org/1999/xlink" x="0px" y="0px"
	 viewBox="0 0 43 43" style="enable-background:new 0 0 43 43;" xml:space="preserve">
<style type="text/css">
	.st0{fill:url(#SVGID_1_);}
	.st1{fill:url(#SVGID_2_);}
	.st2{fill:url(#SVGID_3_);}
	.st3{fill:url(#SVGID_4_);}
	.st4{fill:url(#SVGID_5_);}
	.st5{fill:url(#SVGID_6_);}
	.st6{fill:url(#SVGID_7_);}
</style>
<linearGradient id="SVGID_1_" gradientUnits="userSpaceOnUse" x1="21.5" y1="30.1" x2="21.5" y2="25.8">
	<stop  offset="0" style="stop-color:#9D52B5"/>
	<stop  offset="1" style="stop-color:#ECB2FF"/>
</linearGradient>
<rect x="12.9" y="25.8" class="st0" width="17.2" height="4.3"/>
<linearGradient id="SVGID_2_" gradientUnits="userSpaceOnUse" x1="15.7672" y1="10.4357" x2="22.0417" y2="6.813" gradientTransform="matrix(6.123234e-17 -1 1 6.123234e-17 6.3739 35.735)">
	<stop  offset="0" style="stop-color:#9D52B5"/>
	<stop  offset="1" style="stop-color:#ECB2FF"/>
</linearGradient>
<rect x="12.9" y="13.9" class="st1" width="4.2" height="5.9"/>
<linearGradient id="SVGID_3_" gradientUnits="userSpaceOnUse" x1="15.7672" y1="23.4391" x2="22.0417" y2="19.8165" gradientTransform="matrix(6.123234e-17 -1 1 6.123234e-17 6.3739 35.735)">
	<stop  offset="0" style="stop-color:#9D52B5"/>
	<stop  offset="1" style="stop-color:#ECB2FF"/>
</linearGradient>
<rect x="25.9" y="13.9" class="st2" width="4.2" height="5.9"/>
<linearGradient id="SVGID_4_" gradientUnits="userSpaceOnUse" x1="37.3054" y1="58.8334" x2="42.8552" y2="58.8334" gradientTransform="matrix(6.123234e-17 1 -1 6.123234e-17 94.0743 -35.2129)">
	<stop  offset="0" style="stop-color:#ECB2FF"/>
	<stop  offset="1" style="stop-color:#9D52B5"/>
</linearGradient>
<path class="st3" d="M33.3,5.4L33.3,5.4c0-0.1,0-0.2,0-0.3c0-0.6,0.3-1.2,0.6-1.6c0.3-0.4,0.9-1.2,1.1-1.4c0-0.1,0.1-0.1,0.2,0
	l1.2,1.4c0.4,0.5,0.7,1.2,0.7,1.9c0,0,0,0,0,0v0c0,1.2-1,2.2-1.8,2.2H35C34.3,7.6,33.3,6.7,33.3,5.4z"/>
<linearGradient id="SVGID_5_" gradientUnits="userSpaceOnUse" x1="46.4936" y1="58.0094" x2="52.0434" y2="58.0094" gradientTransform="matrix(6.123234e-17 1 -1 6.123234e-17 94.0743 -35.2129)">
	<stop  offset="0" style="stop-color:#ECB2FF"/>
	<stop  offset="1" style="stop-color:#9D52B5"/>
</linearGradient>
<path class="st4" d="M34.1,14.6L34.1,14.6c0-0.1,0-0.2,0-0.3c0-0.6,0.3-1.2,0.6-1.6c0.3-0.4,0.9-1.2,1.1-1.4c0-0.1,0.1-0.1,0.2,0
	l1.2,1.4c0.4,0.5,0.7,1.2,0.7,1.9c0,0,0,0,0,0v0c0,1.2-1,2.2-1.8,2.2h-0.3C35.1,16.8,34.1,15.8,34.1,14.6z"/>
<linearGradient id="SVGID_6_" gradientUnits="userSpaceOnUse" x1="32.19" y1="40.1585" x2="10.6863" y2="2.9129">
	<stop  offset="0" style="stop-color:#9D52B5"/>
	<stop  offset="1" style="stop-color:#ECB2FF"/>
</linearGradient>
<path class="st5" d="M40.7,12.8h-0.3c-0.5,0-1.1-0.2-1.5-0.5c0.4,0.7,0.6,1.5,0.6,2.3c0,1.1-0.5,2.2-1.3,2.9c0.3,1.3,0.5,2.7,0.5,4
	c0,4.6-1.8,8.9-5,12.2c-3.2,3.2-7.6,5-12.2,5s-8.9-1.8-12.2-5c-3.2-3.2-5-7.6-5-12.2s1.8-8.9,5-12.2s7.6-5,12.2-5s8.9,1.8,12.2,5
	c0.4,0.4,0.7,0.7,1,1.1l0.1-0.1c0.3-0.4,0.8-0.6,1.3-0.6c0.5,0,0.9,0.2,1.2,0.6l0.2,0.2c-0.2-0.4-0.3-0.9-0.3-1.4c0-0.1,0-0.3,0-0.4
	c0-0.1,0-0.2,0.1-0.4c-0.5,0.4-1.2,0.7-1.8,0.7H35c-1.7,0-3.2-1.8-3.2-3.7c0-0.1,0-0.3,0-0.4c0-0.7,0.3-1.4,0.7-2
	c-3.2-1.9-7-3.1-11-3.1C9.6,0,0,9.6,0,21.5C0,33.4,9.6,43,21.5,43C33.4,43,43,33.4,43,21.5c0-3.1-0.7-6-1.9-8.7
	C41,12.8,40.9,12.8,40.7,12.8z"/>
<linearGradient id="SVGID_7_" gradientUnits="userSpaceOnUse" x1="41.0127" y1="53.5019" x2="46.5624" y2="53.5019" gradientTransform="matrix(6.123234e-17 1 -1 6.123234e-17 94.0743 -35.2129)">
	<stop  offset="0" style="stop-color:#ECB2FF"/>
	<stop  offset="1" style="stop-color:#9D52B5"/>
</linearGradient>
<path class="st6" d="M38.7,9.2L38.7,9.2c0-0.1,0-0.2,0-0.3c0-0.6,0.3-1.2,0.6-1.6c0.3-0.4,0.9-1.2,1.1-1.4c0-0.1,0.1-0.1,0.2,0
	l1.2,1.4c0.4,0.5,0.7,1.2,0.7,1.9c0,0,0,0,0,0v0c0,1.2-1,2.2-1.8,2.2h-0.3C39.6,11.3,38.7,10.4,38.7,9.2z"/>
</svg>
