<svg width="53" height="48" viewBox="0 0 53 48" fill="none" xmlns="http://www.w3.org/2000/svg">
<path d="M43.1814 10.8023L40.6497 8.35547L38.118 10.8023L37.9354 10.9927C37.4808 11.5032 37.1903 12.1308 37.0994 12.7986C37.0085 13.4663 37.1212 14.1452 37.4236 14.7519C37.726 15.3587 38.2051 15.867 38.802 16.2145C39.3989 16.5621 40.0877 16.7337 40.7841 16.7085C41.4805 16.6832 42.154 16.4621 42.7223 16.0723C43.2906 15.6825 43.7288 15.1409 43.9833 14.5139C44.2378 13.8869 44.2975 13.2018 44.155 12.5425C44.0126 11.8833 43.6742 11.2785 43.1814 10.8023Z" fill="url(#paint0_linear_114_590)"/>
<path fill-rule="evenodd" clip-rule="evenodd" d="M15.674 18.025V25.862H11.7555V18.025H15.674ZM31.348 18.025V25.862H27.4295V18.025H31.348ZM29.3887 29.7805V33.699H13.7147V29.7805H29.3887Z" fill="url(#paint1_linear_114_590)"/>
<path fill-rule="evenodd" clip-rule="evenodd" d="M21.5517 8.2288C19.2361 8.2288 16.9431 8.6849 14.8038 9.57105C12.6644 10.4572 10.7205 11.7561 9.08315 13.3935C7.44575 15.0308 6.1469 16.9747 5.26074 19.1141C4.37459 21.2534 3.91849 23.5464 3.91849 25.862C3.91849 28.1777 4.37459 30.4706 5.26074 32.61C6.1469 34.7493 7.44575 36.6932 9.08315 38.3306C10.7205 39.968 12.6644 41.2669 14.8038 42.153C16.9431 43.0392 19.2361 43.4953 21.5517 43.4953C26.2283 43.4953 30.7134 41.6375 34.0203 38.3306C37.3272 35.0237 39.185 30.5386 39.185 25.862C39.185 23.5146 38.7169 21.2155 37.8325 19.0894C38.7879 19.5334 39.8381 19.7443 40.8932 19.7061C41.3214 19.6905 41.7459 19.634 42.1607 19.538C42.7736 21.5378 43.1034 23.6614 43.1034 25.862C43.1034 37.7645 33.4542 47.4137 21.5517 47.4137C9.64929 47.4137 0 37.7645 0 25.862C0 13.9596 9.64929 4.3103 21.5517 4.3103C26.8256 4.3103 31.6572 6.20478 35.4029 9.35031C34.7229 10.2321 34.2784 11.2785 34.1266 12.3936C34.0789 12.7438 34.0609 13.0955 34.0717 13.4451L34.0203 13.3935C30.7134 10.0866 26.2283 8.2288 21.5517 8.2288Z" fill="url(#paint2_linear_114_590)"/>
<path d="M50.3432 19.1578L47.8115 16.7109L45.2798 19.1578L45.0972 19.3481C44.6427 19.8587 44.3522 20.4863 44.2613 21.154C44.1704 21.8218 44.2831 22.5006 44.5855 23.1074C44.8879 23.7142 45.3669 24.2225 45.9638 24.57C46.5607 24.9175 47.2496 25.0892 47.946 25.0639C48.6423 25.0387 49.3159 24.8176 49.8842 24.4278C50.4524 24.038 50.8907 23.4964 51.1452 22.8694C51.3997 22.2424 51.4593 21.5573 51.3169 20.898C51.1745 20.2387 50.8361 19.6339 50.3432 19.1578Z" fill="url(#paint3_linear_114_590)"/>
<path d="M51.5368 2.44686L49.0052 0L46.4735 2.44686L46.2908 2.63721C45.8363 3.14774 45.5458 3.77534 45.4549 4.44308C45.364 5.11083 45.4767 5.7897 45.7791 6.39647C46.0815 7.00324 46.5605 7.51155 47.1574 7.85908C47.7543 8.20661 48.4432 8.37827 49.1396 8.353C49.8359 8.32773 50.5095 8.10664 51.0778 7.71683C51.6461 7.32702 52.0843 6.78543 52.3388 6.15845C52.5933 5.53147 52.653 4.84635 52.5105 4.18707C52.3681 3.5278 52.0297 2.92301 51.5368 2.44686Z" fill="url(#paint4_linear_114_590)"/>
<defs>
<linearGradient id="paint0_linear_114_590" x1="40.6497" y1="8.35547" x2="40.6497" y2="16.7109" gradientUnits="userSpaceOnUse">
<stop stop-color="#ECB2FF"/>
<stop offset="1" stop-color="#9D52B5"/>
</linearGradient>
<linearGradient id="paint1_linear_114_590" x1="22.1152" y1="4.3103" x2="22.1152" y2="47.4137" gradientUnits="userSpaceOnUse">
<stop stop-color="#ECB2FF"/>
<stop offset="1" stop-color="#9D52B5"/>
</linearGradient>
<linearGradient id="paint2_linear_114_590" x1="22.1152" y1="4.3103" x2="22.1152" y2="47.4137" gradientUnits="userSpaceOnUse">
<stop stop-color="#ECB2FF"/>
<stop offset="1" stop-color="#9D52B5"/>
</linearGradient>
<linearGradient id="paint3_linear_114_590" x1="47.8116" y1="16.7109" x2="47.8116" y2="25.0664" gradientUnits="userSpaceOnUse">
<stop stop-color="#ECB2FF"/>
<stop offset="1" stop-color="#9D52B5"/>
</linearGradient>
<linearGradient id="paint4_linear_114_590" x1="49.0052" y1="0" x2="49.0052" y2="8.35544" gradientUnits="userSpaceOnUse">
<stop stop-color="#ECB2FF"/>
<stop offset="1" stop-color="#9D52B5"/>
</linearGradient>
</defs>
</svg>
