<svg width="43" height="43" viewBox="0 0 43 43" fill="none" xmlns="http://www.w3.org/2000/svg">
<path d="M21.5 0C33.3745 0 43 9.62554 43 21.5C43 23.063 42.8323 24.5852 42.5163 26.0537L38.685 22.2202C38.695 21.9837 38.7 21.7437 38.7 21.5C38.6989 17.7538 37.4747 14.1103 35.2136 11.1235C32.9524 8.13662 29.7779 5.96966 26.1726 4.95195C22.5673 3.93425 18.7282 4.12145 15.239 5.48512C11.7498 6.84878 8.80122 9.31433 6.8414 12.507C4.88159 15.6997 4.01772 19.445 4.38111 23.1735C4.7445 26.9021 6.31526 30.41 8.85466 33.1642C11.3941 35.9184 14.7632 37.7682 18.4501 38.4325C22.1369 39.0968 25.9399 38.5392 29.2809 36.8445C29.6134 37.3749 30.0097 37.8701 30.4698 38.3302C31.1191 38.9816 31.8458 39.5062 32.622 39.904C29.268 41.9347 25.4208 43.0056 21.5 43C9.62555 43 0 33.3744 0 21.5C0 9.62554 9.62555 0 21.5 0ZM36.55 26.1698L39.5901 29.2099C40.1819 29.8015 40.5882 30.5529 40.7593 31.372C40.9303 32.1911 40.8587 33.0424 40.5531 33.8213C40.2475 34.6003 39.7212 35.2732 39.0389 35.7575C38.3565 36.2419 37.5476 36.5166 36.7114 36.548C35.8752 36.5793 35.048 36.3661 34.3312 35.9343C33.6145 35.5025 33.0392 34.8709 32.6761 34.1171C32.313 33.3632 32.1777 32.5197 32.2868 31.6901C32.396 30.8604 32.7448 30.0807 33.2906 29.4464L33.5099 29.2099L36.55 26.1698ZM21.5 27.95C24.6519 27.95 27.4877 29.3066 29.455 31.4695L27.4233 33.3185C25.7248 32.6413 23.6887 32.25 21.5 32.25C19.3113 32.25 17.2752 32.6434 15.5768 33.3164L13.545 31.4674C14.5528 30.3592 15.781 29.4739 17.1509 28.8682C18.5208 28.2625 20.0022 27.9497 21.5 27.95ZM13.975 17.2C14.8303 17.2 15.6506 17.5398 16.2554 18.1446C16.8602 18.7494 17.2 19.5697 17.2 20.425C17.2 21.2803 16.8602 22.1006 16.2554 22.7054C15.6506 23.3102 14.8303 23.65 13.975 23.65C13.1197 23.65 12.2994 23.3102 11.6946 22.7054C11.0898 22.1006 10.75 21.2803 10.75 20.425C10.75 19.5697 11.0898 18.7494 11.6946 18.1446C12.2994 17.5398 13.1197 17.2 13.975 17.2ZM29.025 17.2C29.8803 17.2 30.7006 17.5398 31.3054 18.1446C31.9102 18.7494 32.25 19.5697 32.25 20.425C32.25 21.2803 31.9102 22.1006 31.3054 22.7054C30.7006 23.3102 29.8803 23.65 29.025 23.65C28.1697 23.65 27.3494 23.3102 26.7446 22.7054C26.1398 22.1006 25.8 21.2803 25.8 20.425C25.8 19.5697 26.1398 18.7494 26.7446 18.1446C27.3494 17.5398 28.1697 17.2 29.025 17.2Z" fill="url(#paint0_linear_114_587)"/>
<defs>
<linearGradient id="paint0_linear_114_587" x1="21.5" y1="0" x2="21.5" y2="43" gradientUnits="userSpaceOnUse">
<stop stop-color="#BDDBFE"/>
<stop offset="1" stop-color="#4D7BAF"/>
</linearGradient>
</defs>
</svg>
